PathFileType	4	(X/Y/Z)	 s09c0402.trc
DataRate	CameraRate	NumFrames	NumMarkers	Units	OrigDataRate	OrigDataStartFrame	OrigNumFrames
200	200	4	50	mm	200	1251	2000
Frame#	Time	racr			lacr			c7			jug			rlel			rdr			llel			ldr			s2			lic			ric			lasi			rasi			rpsi			lpsi			rgt			lgt			rth1			rth2			rth3			rth4			rlfc			rmfc			rsh1			rsh2			rsh3			rsh4			rlmal			rmmal			rcal			rtoe			rmt5			lth1			lth2			lth4			lth3			llfc			lmfc			llmal			lmmal			lcal			lmt5			lsh1			lsh2			lsh3			lsh4			ltoe			SBIKE			LBIKE			RBIKE			
		X1	Y1	Z1	X2	Y2	Z2	X3	Y3	Z3	X4	Y4	Z4	X5	Y5	Z5	X6	Y6	Z6	X7	Y7	Z7	X8	Y8	Z8	X9	Y9	Z9	X10	Y10	Z10	X11	Y11	Z11	X12	Y12	Z12	X13	Y13	Z13	X14	Y14	Z14	X15	Y15	Z15	X16	Y16	Z16	X17	Y17	Z17	X18	Y18	Z18	X19	Y19	Z19	X20	Y20	Z20	X21	Y21	Z21	X22	Y22	Z22	X23	Y23	Z23	X24	Y24	Z24	X25	Y25	Z25	X26	Y26	Z26	X27	Y27	Z27	X28	Y28	Z28	X29	Y29	Z29	X30	Y30	Z30	X31	Y31	Z31	X32	Y32	Z32	X33	Y33	Z33	X34	Y34	Z34	X35	Y35	Z35	X36	Y36	Z36	X37	Y37	Z37	X38	Y38	Z38	X39	Y39	Z39	X40	Y40	Z40	X41	Y41	Z41	X42	Y42	Z42	X43	Y43	Z43	X44	Y44	Z44	X45	Y45	Z45	X46	Y46	Z46	X47	Y47	Z47	X48	Y48	Z48	X49	Y49	Z49	X50	Y50	Z50	
1251	6.2550	704.342932	1282.276295	-32.246821	708.900346	1251.055803	-411.417935	722.609577	1352.617507	-229.594077	716.544808	1219.323026	-220.821337	538.875650	1084.254530	37.917765	688.909076	909.498840	-28.415160	520.119527	1080.502563	-530.659753	677.685940	905.360255	-462.057812	243.253467	1167.022083	-231.941263	391.694571	1138.288203	-365.796099	369.640739	1135.705547	-70.599629	412.662960	1076.718775	-334.551239	404.321381	1075.907534	-89.686759	275.700952	1188.165377	-168.485480	284.180562	1197.450174	-279.776755	309.200457	989.876658	-42.369304	342.747771	1024.265198	-418.600707	364.049474	857.572851	-47.403278	414.564944	786.417842	-56.316394	416.426605	698.162490	-70.100772	444.937004	796.911796	-74.005113	438.827733	608.268534	-99.845417	421.067345	588.864837	-194.068379	384.061391	518.733735	-67.313597	379.945019	429.903677	-81.712827	332.754386	356.635115	-82.778362	406.117990	425.745297	-111.154873	296.146295	258.943539	-82.190478	300.223913	271.680746	-158.185767	216.540859	242.009114	-121.023844	470.208927	166.745685	-128.278895	387.017275	170.535032	-62.146529	426.627336	920.466293	-419.968709	499.998566	877.478624	-413.504466	524.561445	900.672621	-396.617327	545.395676	799.620519	-414.369928	577.580840	711.693895	-399.721706	580.618431	689.669487	-301.322876	232.802685	588.973694	-410.013363	252.176210	580.908562	-337.224088	160.677270	622.099145	-369.773903	228.197955	462.390764	-429.599125	488.025384	675.838769	-421.711156	415.517866	628.534695	-411.821906	326.660992	623.136797	-412.376326	425.883319	604.699422	-382.184547	295.979197	400.259029	-359.412769	-64.582854	853.115132	-238.365953	20.681385	84.845198	-441.905297	21.139198	83.980462	-43.753273	
1252	6.2600	705.371415	1283.898938	-35.771961	708.173863	1250.229645	-414.780598	721.525914	1353.338582	-232.461243	716.634466	1219.477906	-224.170428	541.053830	1085.960660	37.275892	689.281123	909.441873	-29.576728	518.601275	1079.054055	-531.995337	677.562740	905.461198	-461.874051	243.368637	1166.244181	-228.807213	390.037215	1139.071425	-365.324437	371.630202	1133.908076	-69.769968	411.839999	1077.221343	-334.541560	405.885080	1074.458657	-90.157626	276.621098	1187.105749	-165.409710	283.507028	1197.293040	-276.444300	310.660681	987.705619	-41.215185	341.277037	1026.088979	-417.082149	362.389130	855.274437	-47.570694	410.993191	782.882874	-56.716712	410.570218	694.544290	-70.796130	441.314551	792.639606	-74.987978	430.560525	604.756552	-100.660514	411.032857	585.647433	-194.878652	375.906804	515.459507	-67.596803	371.936422	426.490376	-82.014369	324.929571	353.079178	-82.778297	397.846790	422.409789	-111.807236	288.145850	255.369302	-81.926584	292.449541	267.752497	-158.014731	208.691801	240.055138	-121.053888	460.984300	159.712612	-128.261837	377.822978	165.088553	-62.032518	428.113470	923.863318	-418.775803	502.957518	883.111978	-412.009612	527.908898	906.172205	-394.517975	549.960460	806.108612	-414.692029	584.474902	718.460270	-399.435938	587.628237	696.325231	-300.678363	239.861278	594.072380	-409.831202	259.135038	586.702917	-336.979195	166.576140	626.308791	-369.804556	237.598072	468.139307	-429.804473	495.188788	682.718947	-421.081847	422.772324	635.216891	-411.479066	333.941951	629.685175	-412.021385	433.169337	611.199849	-381.995106	306.612052	407.326652	-359.661490	-64.616141	853.103562	-238.391360	20.688998	84.836455	-441.911208	21.134311	83.980444	-43.760661	
1253	6.2650	706.277931	1285.553127	-39.308792	707.366680	1249.327450	-418.174796	721.386726	1353.545978	-236.749328	716.691440	1219.765249	-227.609483	543.270968	1087.537663	36.490242	689.796454	909.360917	-30.488179	517.118516	1077.588085	-533.320807	677.479443	905.714812	-461.832953	243.244635	1165.561333	-225.363493	388.258447	1139.936035	-364.618184	373.906297	1132.140366	-69.013776	411.003616	1077.753102	-334.605298	407.503310	1072.863864	-90.605470	277.577574	1186.121176	-162.372186	282.536400	1197.299552	-273.486253	312.305322	985.592363	-39.985530	339.666043	1027.873359	-415.638661	360.891320	853.390682	-47.141486	407.466884	779.812421	-57.062918	404.896791	691.592893	-71.211870	437.773564	788.802358	-75.886483	422.620209	601.508870	-101.221180	401.042795	583.029363	-195.635340	367.892555	512.538710	-68.044987	364.090717	423.665924	-82.158159	317.173516	350.179867	-82.700786	389.733908	419.607934	-112.306312	280.155598	252.664018	-81.647245	284.620139	264.743017	-157.740881	200.942855	238.521133	-120.993349	451.473857	153.371241	-128.218001	368.365726	160.437116	-62.014319	429.460286	927.345499	-417.822978	505.422592	888.143865	-410.839477	529.794919	911.973229	-393.544067	554.249813	812.706876	-414.876466	590.903826	725.373096	-399.330495	594.103500	703.840579	-298.372674	246.913305	598.712054	-409.616543	266.069506	591.864203	-336.692206	172.551185	629.876851	-370.176282	247.179264	473.252879	-429.912635	501.994938	689.664002	-420.492086	429.810896	641.688371	-411.128485	341.007818	635.749142	-411.704817	439.932213	617.654608	-381.868450	317.803738	414.141720	-359.989964	-64.636300	853.103917	-238.422425	20.689977	84.824709	-441.903856	21.124221	84.004289	-43.782440	
1254	6.2700	707.139513	1287.011863	-42.948371	706.511382	1248.468419	-421.821868	721.189828	1353.658934	-241.083052	716.763590	1219.855828	-230.958598	545.542760	1089.060019	35.603272	690.319942	909.223643	-31.284577	515.826032	1076.252213	-535.372070	677.524073	906.089702	-461.992754	243.163377	1165.051304	-221.736244	386.434209	1140.922466	-364.083508	376.365150	1130.366615	-68.501788	410.224093	1078.354060	-334.693353	409.183766	1071.303972	-90.926360	278.421714	1185.357301	-159.184081	281.371876	1197.343100	-270.497408	314.070825	983.773540	-38.746858	337.969191	1029.597526	-414.082152	359.619706	851.535205	-46.697223	404.062728	776.468984	-56.986557	399.437659	688.951262	-71.285251	434.217898	785.168984	-77.108844	414.895809	598.770284	-101.886418	391.245248	580.758501	-195.613743	360.061393	510.162784	-68.470460	356.390475	421.425287	-82.182695	309.449029	347.910000	-82.513708	381.840929	417.399686	-112.478494	272.156231	250.335065	-81.768288	276.581134	262.420422	-157.370011	193.185269	237.618310	-120.849252	441.686373	147.484721	-128.158066	358.935946	156.230730	-61.911033	430.831289	930.868594	-416.647467	507.781888	893.468662	-409.773860	531.615996	917.764484	-392.572043	558.257565	819.341505	-414.731535	597.191190	732.348073	-399.107536	600.581381	710.332868	-298.650995	253.975959	602.687868	-409.368348	273.117618	596.374966	-336.445687	178.238727	632.427156	-369.960387	256.897562	477.827907	-430.131619	508.391335	696.447920	-419.944629	436.547781	647.816572	-410.816854	347.838767	641.269265	-411.304082	446.875252	623.977935	-381.602919	328.913400	420.381414	-360.124994	-64.680453	853.094896	-238.404664	20.696688	84.815913	-441.910972	21.119411	83.968673	-43.766026	
